<svg xmlns="http://www.w3.org/2000/svg" viewBox="0 0 100 100" width="128" height="128"><title>Okra</title><rect width="100" height="100" rx="18" fill="#e6f2de"/><g transform="rotate(18 50 53)"><path d="M50 15Q58 25 66 36L61 78Q58 88 50 91Q42 87 39 78L34 36Q42 25 50 15Z" fill="#3e9836"/><path d="M50 24L49 84M41 31L46 80M59 31L54 80M35 37L43 77M65 37L57 77" stroke="#74bd50" stroke-width="2"/><path d="M50 17L44 10M50 17L57 10M50 17V8" stroke="#557c32" stroke-width="3" stroke-linecap="round"/></g></svg>
